
        <svg xmlns="http://www.w3.org/2000/svg" xmlns:xlink="http://www.w3.org/1999/xlink" version="1.1" width="3171.4285714285716" 
        height="1471.5185989826794" viewBox="0 0 3171.4285714285716 1471.5185989826794">
			<rect fill="#ffffff" width="3171.4285714285716" height="1471.5185989826794"/>
			<g transform="scale(8.571428571428571) translate(10, 10)">
				<defs id="SvgjsDefs3061"></defs><g id="SvgjsG3062" featureKey="symbolFeature-0" transform="matrix(1.14290669914675,0,0,1.14290669914675,136.00000389122093,0)" fill="#83b271"><path xmlns="http://www.w3.org/2000/svg" d="M66.84,0.111C66.635,0.035,66.422,0,66.212,0c-0.613,0-1.208,0.308-1.557,0.844c-0.059,0.09-1.478,2.219-4.996,3.213  c-1.263,0.355-3.122,0.529-5.276,0.729C49.826,5.207,43.586,5.787,37.83,8.743c-8.666,4.452-9.578,12.519-8.85,16.159  c0.347,1.732,1.43,2.866,2.568,3.567c-3.702,5.937-1.75,14.444-1.75,14.444s-0.128-6.14,3.236-11.926  c0.059,0.092,0.106,0.184,0.174,0.275c1.195,1.631,3.295,2.547,6.241,2.723c0.036,0.002,0.073,0.003,0.109,0.003  c0.056,0,0.108-0.002,0.163-0.007C63.96,31.822,68,2.362,68.038,2.064C68.146,1.213,67.646,0.406,66.84,0.111z M39.56,32.146  c-3.743-0.223-4.975-1.717-5.35-2.944c0.215-0.294,0.429-0.589,0.665-0.876c5.257-6.381,15.664-12.762,15.664-12.762  s-12.85,5.604-17.886,11.419c-0.774-0.436-1.615-1.186-1.867-2.441c-0.499-2.5-0.222-9.995,7.886-14.161  c8.105-4.164,17.156-3.329,21.486-4.552c4.332-1.222,6.053-3.999,6.053-3.999S62.602,30.095,39.56,32.146z"></path><path xmlns="http://www.w3.org/2000/svg" d="M27.773,30.186c0.525-2.631-0.122-8.449-6.334-11.643c-4.023-2.064-8.34-2.467-11.492-2.758  c-1.436-0.135-2.677-0.25-3.484-0.477c-2.157-0.608-3.036-1.892-3.057-1.921c-0.343-0.553-0.941-0.87-1.564-0.87  c-0.207,0-0.414,0.033-0.617,0.105c-0.816,0.29-1.32,1.11-1.21,1.969C0.041,14.8,2.857,35.325,19.828,36.84  c0.055,0.005,0.108,0.007,0.163,0.007c0.037,0,0.073-0.001,0.11-0.003c2.188-0.132,3.766-0.836,4.688-2.094  c0.019-0.025,0.033-0.053,0.051-0.079c2.042,3.741,2.067,7.634,2.067,7.634s1.04-5.384-1.08-9.349  C26.693,32.402,27.505,31.517,27.773,30.186z M25.967,29.823c-0.163,0.81-0.685,1.305-1.188,1.608  c-3.442-3.904-10.732-6.644-10.732-6.644s5.429,3.227,9.129,7.471c0.175,0.2,0.334,0.407,0.492,0.614  c-0.209,0.855-0.997,1.971-3.677,2.131C4.301,33.605,1.842,14.359,1.842,14.359s1.174,1.891,4.121,2.723  c2.949,0.83,9.113,0.264,14.635,3.1C26.117,23.019,26.307,28.122,25.967,29.823z"></path></g><g id="SvgjsG3063" featureKey="nameFeature-0" transform="matrix(2.870734951250596,0,0,2.870734951250596,0,36.388454677128045)" fill="#83b271"><path d="M3.8 34 l0 5.96 l-3.8 0 l0 -28.52 l5.92 0 c2.64 0 4.76 2.16 4.76 4.8 l0 13 c0 2.64 -2.12 4.76 -4.76 4.76 l-2.12 0 z M3.8 15.239999999999998 l0 14.96 l2.12 0 c0.56 0 0.96 -0.4 0.96 -0.96 l0 -13 c0 -0.56 -0.4 -1 -0.96 -1 l-2.12 0 z M19.08 36.16 l0 3.8 l-1.16 0 c-2.88 0 -5.24 -2.36 -5.24 -5.24 l0 -23.28 l3.8 0 l0 23.28 c0 0.76 0.64 1.44 1.44 1.44 l1.16 0 z M29.72 32.76 l0 7.2 l-3.68 0 l0 -0.12 c-0.36 0.08 -0.72 0.12 -1.12 0.12 c-2.8 0 -5.04 -2.24 -5.04 -5.04 l0 -4.28 c0 -1.12 0.44 -2.16 1.24 -2.96 c0.76 -0.76 1.8 -1.2 2.92 -1.2 l1.92 0 l0 -4.32 c0 -0.6 -0.52 -1.12 -1.12 -1.12 l-0.2 0 c-0.64 0 -1.12 0.52 -1.12 1.12 l0 3.04 l-3.72 0 l0 -3.04 c0 -2.68 2.16 -4.84 4.84 -4.84 l0.2 0 c2.68 0 4.84 2.16 4.84 4.84 z M24.919999999999998 36.24 c0.6 0 1.12 -0.48 1.12 -1.08 l-0.04 -4.92 l-1.96 -0.04 c-0.16 0 -0.24 0.08 -0.32 0.12 c-0.04 0.08 -0.12 0.16 -0.12 0.32 l0 4.28 c0 0.72 0.6 1.32 1.32 1.32 z M36.519999999999996 17.36 c2.64 0 4.8 2.16 4.8 4.8 l0 18 l-3.84 0 l0 -18 c0 -0.52 -0.44 -0.96 -0.96 -0.96 s-0.96 0.44 -0.96 0.96 l0 18 l-3.84 0 l0 -23.52 l3.84 0 l0 0.84 c0.32 -0.08 0.64 -0.12 0.96 -0.12 z M51.72 21.2 l-2.72 0 l0 12.76 c0 1.2 1 2.16 2.2 2.16 l0 3.84 c-3.32 0 -6 -2.68 -6 -6 l0 -12.76 l-2.72 0 l0 -3.84 l2.72 0 l0 -6 l3.8 0 l0 6 l2.72 0 l0 3.84 z M57.519999999999996 34 l0 5.96 l-3.8 0 l0 -28.52 l5.92 0 c2.64 0 4.76 2.16 4.76 4.8 l0 13 c0 2.64 -2.12 4.76 -4.76 4.76 l-2.12 0 z M57.519999999999996 15.239999999999998 l0 14.96 l2.12 0 c0.56 0 0.96 -0.4 0.96 -0.96 l0 -13 c0 -0.56 -0.4 -1 -0.96 -1 l-2.12 0 z M76.32000000000001 32.76 l0 7.2 l-3.68 0 l0 -0.12 c-0.36 0.08 -0.72 0.12 -1.12 0.12 c-2.8 0 -5.04 -2.24 -5.04 -5.04 l0 -4.28 c0 -1.12 0.44 -2.16 1.24 -2.96 c0.76 -0.76 1.8 -1.2 2.92 -1.2 l1.92 0 l0 -4.32 c0 -0.6 -0.52 -1.12 -1.12 -1.12 l-0.2 0 c-0.64 0 -1.12 0.52 -1.12 1.12 l0 3.04 l-3.72 0 l0 -3.04 c0 -2.68 2.16 -4.84 4.84 -4.84 l0.2 0 c2.68 0 4.84 2.16 4.84 4.84 z M71.52000000000001 36.24 c0.6 0 1.12 -0.48 1.12 -1.08 l-0.04 -4.92 l-1.96 -0.04 c-0.16 0 -0.24 0.08 -0.32 0.12 c-0.04 0.08 -0.12 0.16 -0.12 0.32 l0 4.28 c0 0.72 0.6 1.32 1.32 1.32 z M83.52000000000001 18.28 c2.72 0 4.92 2.16 4.92 4.88 l0 1.92 l-3.8 0 l0 -1.92 c0 -0.64 -0.48 -1.12 -1.12 -1.12 l-0.84 0 c-0.6 0 -1.12 0.48 -1.12 1.12 l-0.08 16.88 l-3.76 0 l0.08 -16.88 l0 -5.76 l3.76 0 l0 1 c0.36 -0.08 0.76 -0.12 1.12 -0.12 l0.84 0 z M94.68000000000002 39.92 c-2.88 0 -5.2 -2.36 -5.2 -5.24 l0 -12.48 c0 -2.64 2.16 -4.8 4.8 -4.8 l0.84 0 c2.64 0 4.8 2.16 4.8 4.8 l0 5.24 l-6.72 0.12 l0 7.12 c0 0.84 0.64 1.52 1.48 1.52 s1.52 -0.68 1.52 -1.52 l0 -2.48 l3.72 0 l0 2.48 c0 2.88 -2.36 5.24 -5.24 5.24 z M95.12000000000002 21.08 l-0.84 0 c-0.6 0 -1.08 0.52 -1.08 1.12 l0 1.68 l3 -0.08 l0 -1.6 c0 -0.6 -0.48 -1.12 -1.08 -1.12 z M106.72000000000001 17.36 c2.64 0 4.8 2.16 4.8 4.8 l0 18 l-3.84 0 l0 -18 c0 -0.52 -0.44 -0.96 -0.96 -0.96 s-0.96 0.44 -0.96 0.96 l0 18 l-3.84 0 l0 -23.52 l3.84 0 l0 0.84 c0.32 -0.08 0.64 -0.12 0.96 -0.12 z M121.92 21.2 l-2.72 0 l0 12.76 c0 1.2 1 2.16 2.2 2.16 l0 3.84 c-3.32 0 -6 -2.68 -6 -6 l0 -12.76 l-2.72 0 l0 -3.84 l2.72 0 l0 -6 l3.8 0 l0 6 l2.72 0 l0 3.84 z"></path></g>
			</g>
		</svg>
	