<svg fill="currentColor" viewBox="0 0 24.00 24.00"
     xmlns="http://www.w3.org/2000/svg"
     stroke="#000000"
     stroke-width="0.00024000000000000003">
    <g id="SVGRepo_iconCarrier">
        <path d="M5.859,8.341a5.876,5.876,0,0,0,5.283.117A9,9,0,0,0,11,10v2H6a1,1,0,0,0-1,1v3a1,1,0,0,0,1,1H7v5a1,1,0,0,0,1,1h8a1,1,0,0,0,1-1V17h1a1,1,0,0,0,1-1V13a1,1,0,0,0-1-1H13V10a7.008,7.008,0,0,1,7-7,1,1,0,0,0,0-2,8.993,8.993,0,0,0-7.642,4.27C11.415,3.55,9.155,1,4,1A1,1,0,0,0,3,2C3,2.187,3.033,6.594,5.859,8.341ZM15,21H9V17h6Zm2-6H7V14H17ZM10.756,6.471c-1.635.677-2.924.736-3.841.172-1.154-.711-1.646-2.383-1.826-3.6C8.8,3.375,10.238,5.366,10.756,6.471Z"></path>
    </g>
    <circle cx="18" cy="18" r="4" fill="white"/>
    <g transform="scale(.65 .65) translate(20, 20)">
        <path d="M16 8A8 8 0 1 1 0 8a8 8 0 0 1 16 0M8.5 4.5a.5.5 0 0 0-1 0v3h-3a.5.5 0 0 0 0 1h3v3a.5.5 0 0 0 1 0v-3h3a.5.5 0 0 0 0-1h-3z"/>
    </g>
</svg>